<svg width="98" height="134" viewBox="0 0 98 134" fill="none" xmlns="http://www.w3.org/2000/svg">
<g clip-path="url(#clip0_12_13606)">
<path d="M49 35.1484C61.9956 35.1484 74.459 40.3109 83.6482 49.5002C92.8375 58.6895 98 71.1528 98 84.1484C98 97.144 92.8375 109.607 83.6482 118.797C74.459 127.986 61.9956 133.148 49 133.148C36.0044 133.148 23.541 127.986 14.3518 118.797C5.16249 109.607 0 97.144 0 84.1484C0 71.1528 5.16249 58.6895 14.3518 49.5002C23.541 40.3109 36.0044 35.1484 49 35.1484ZM49 42.9884C38.0837 42.9884 27.6145 47.3249 19.8955 55.0439C12.1765 62.7629 7.84 73.2321 7.84 84.1484C7.84 95.0648 12.1765 105.534 19.8955 113.253C27.6145 120.972 38.0837 125.308 49 125.308C59.9163 125.308 70.3855 120.972 78.1045 113.253C85.8235 105.534 90.16 95.0648 90.16 84.1484C90.16 73.2321 85.8235 62.7629 78.1045 55.0439C70.3855 47.3249 59.9163 42.9884 49 42.9884Z" fill="#E5E5E5"/>
<mask id="mask0_12_13606" style="mask-type:luminance" maskUnits="userSpaceOnUse" x="49" y="35" width="49" height="55">
<path d="M49 39.2393C49 38.6958 49.113 38.1582 49.3319 37.6607C49.5508 37.1633 49.8707 36.7167 50.2714 36.3495C50.6721 35.9822 51.1448 35.7023 51.6594 35.5276C52.174 35.3528 52.7194 35.2869 53.2609 35.3342C65.7158 36.4213 77.2841 42.2282 85.5975 51.566C93.9109 60.9038 98.3405 73.0662 97.9796 85.5633C97.9639 86.1066 97.8354 86.6407 97.6022 87.1316C97.3691 87.6226 97.0364 88.0597 96.6253 88.4152C96.2141 88.7707 95.7336 89.0369 95.2141 89.1967C94.6946 89.3566 94.1476 89.4067 93.6077 89.3438C92.6337 89.2303 91.7375 88.7559 91.0961 88.0142C90.4546 87.2724 90.1145 86.3172 90.1428 85.3369C90.446 74.8394 86.7252 64.623 79.7419 56.7792C72.7586 48.9355 63.0413 44.0577 52.5791 43.1445C51.6022 43.0592 50.6927 42.6109 50.0301 41.8879C49.3676 41.165 49 40.22 49 39.2393Z" fill="white"/>
</mask>
<g mask="url(#mask0_12_13606)">
<path d="M93.9097 86.7669C97.5179 86.7669 100.443 83.8418 100.443 80.2335C100.443 76.6253 97.5179 73.7002 93.9097 73.7002C90.3014 73.7002 87.3763 76.6253 87.3763 80.2335C87.3763 83.8418 90.3014 86.7669 93.9097 86.7669Z" fill="white"/>
</g>
<path d="M49 39.2393C49 38.6958 49.113 38.1582 49.3319 37.6607C49.5508 37.1633 49.8707 36.7167 50.2714 36.3495C50.6721 35.9822 51.1448 35.7023 51.6594 35.5276C52.174 35.3528 52.7194 35.2869 53.2609 35.3342C64.7406 36.3362 75.5 41.3521 83.6482 49.5003C91.7965 57.6486 96.8124 68.408 97.8144 79.8877C97.8617 80.4292 97.7958 80.9745 97.621 81.4892C97.4462 82.0038 97.1663 82.4765 96.7991 82.8772C96.4319 83.2779 95.9853 83.5978 95.4878 83.8167C94.9903 84.0356 94.4528 84.1486 93.9092 84.1486C92.9286 84.1486 91.9836 83.781 91.2606 83.1184C90.5377 82.4559 90.0894 81.5464 90.0041 80.5695C89.1624 70.9265 84.9491 61.8886 78.1045 55.0441C71.26 48.1995 62.2221 43.9862 52.5791 43.1445C51.6022 43.0592 50.6927 42.6109 50.0301 41.8879C49.3676 41.165 49 40.22 49 39.2393Z" fill="#58CC02"/>
</g>
<rect x="14" y="77.5" width="70" height="8" fill="#FFDE00"/>
<rect x="14" y="77.5" width="70" height="8" fill="black" fill-opacity="0.2"/>
<g filter="url(#filter0_dd_12_13606)">
<rect x="14" y="49" width="70" height="57" rx="28.5" fill="#FFDE00"/>
</g>
<g clip-path="url(#clip1_12_13606)">
<mask id="mask1_12_13606" style="mask-type:luminance" maskUnits="userSpaceOnUse" x="34" y="63" width="30" height="29">
<path d="M64 63.5H34V91.5H64V63.5Z" fill="white"/>
</mask>
<g mask="url(#mask1_12_13606)">
<path d="M46.7521 64.9116C47.6598 63.0295 50.3402 63.0295 51.2479 64.9116L53.8539 70.3152C54.225 71.0847 54.9639 71.6109 55.8125 71.7099L61.7906 72.4076C63.9269 72.6569 64.7684 75.3114 63.1658 76.7459L58.8845 80.5785C58.224 81.1697 57.9267 82.067 58.1035 82.9357L59.2468 88.553C59.6684 90.624 57.4857 92.2487 55.6228 91.2506L50.1786 88.3339C49.4424 87.9395 48.5576 87.9395 47.8214 88.3339L42.3772 91.2506C40.5143 92.2487 38.3316 90.624 38.7532 88.553L39.8965 82.9357C40.0733 82.067 39.776 81.1697 39.1155 80.5785L34.8342 76.7459C33.2316 75.3114 34.0731 72.6569 36.2094 72.4076L42.1875 71.7099C43.0361 71.6109 43.775 71.0847 44.1461 70.3152L46.7521 64.9116Z" fill="white"/>
</g>
</g>
<rect x="7.5" y="1.85156" width="83" height="43" rx="9" fill="white"/>
<rect x="7.5" y="1.85156" width="83" height="43" rx="9" stroke="#E5E5E5" stroke-width="2"/>
<path d="M25.688 22.7726C25.1307 22.5826 24.624 22.3926 24.168 22.2026C23.712 21.9999 23.3193 21.7592 22.99 21.4806C22.6607 21.2019 22.401 20.8726 22.211 20.4926C22.0337 20.0999 21.945 19.6249 21.945 19.0676C21.945 17.9909 22.3567 17.1296 23.18 16.4836C24.016 15.8376 25.1813 15.5146 26.676 15.5146C27.2207 15.5146 27.7273 15.5526 28.196 15.6286C28.6647 15.7046 29.0637 15.8249 29.393 15.9896C29.735 16.1416 30.001 16.3442 30.191 16.5976C30.381 16.8382 30.476 17.1232 30.476 17.4526C30.476 17.7819 30.4 18.0669 30.248 18.3076C30.096 18.5356 29.9123 18.7319 29.697 18.8966C29.4183 18.7192 29.0447 18.5672 28.576 18.4406C28.1073 18.3012 27.5943 18.2316 27.037 18.2316C26.467 18.2316 26.049 18.3139 25.783 18.4786C25.517 18.6306 25.384 18.8269 25.384 19.0676C25.384 19.2576 25.4663 19.4159 25.631 19.5426C25.7957 19.6566 26.0427 19.7642 26.372 19.8656L27.379 20.1886C28.5697 20.5686 29.4817 21.0562 30.115 21.6516C30.761 22.2342 31.084 23.0322 31.084 24.0456C31.084 25.1222 30.6597 25.9962 29.811 26.6676C28.9623 27.3262 27.7147 27.6556 26.068 27.6556C25.4853 27.6556 24.9407 27.6049 24.434 27.5036C23.94 27.4149 23.503 27.2819 23.123 27.1046C22.7557 26.9146 22.4643 26.6866 22.249 26.4206C22.0463 26.1419 21.945 25.8252 21.945 25.4706C21.945 25.1032 22.0527 24.7929 22.268 24.5396C22.4833 24.2736 22.7177 24.0709 22.971 23.9316C23.3257 24.2102 23.7563 24.4509 24.263 24.6536C24.7823 24.8562 25.346 24.9576 25.954 24.9576C26.5747 24.9576 27.0117 24.8626 27.265 24.6726C27.5183 24.4826 27.645 24.2609 27.645 24.0076C27.645 23.7542 27.5437 23.5642 27.341 23.4376C27.1383 23.2982 26.8533 23.1652 26.486 23.0386L25.688 22.7726ZM32.6216 18.4976C32.533 18.3582 32.4506 18.1682 32.3746 17.9276C32.2986 17.6869 32.2606 17.4336 32.2606 17.1676C32.2606 16.6736 32.3683 16.3189 32.5836 16.1036C32.8116 15.8882 33.103 15.7806 33.4576 15.7806H41.7416C41.8303 15.9199 41.9126 16.1099 41.9886 16.3506C42.0646 16.5912 42.1026 16.8446 42.1026 17.1106C42.1026 17.6046 41.9886 17.9592 41.7606 18.1746C41.5453 18.3899 41.2603 18.4976 40.9056 18.4976H38.7966V27.2756C38.6573 27.3136 38.4356 27.3516 38.1316 27.3896C37.8403 27.4276 37.549 27.4466 37.2576 27.4466C36.9663 27.4466 36.7066 27.4212 36.4786 27.3706C36.2633 27.3326 36.0796 27.2566 35.9276 27.1426C35.7756 27.0286 35.6616 26.8702 35.5856 26.6676C35.5096 26.4649 35.4716 26.1989 35.4716 25.8696V18.4976H32.6216ZM45.9115 16.1796C46.1268 16.0529 46.4498 15.9326 46.8805 15.8186C47.3238 15.7046 47.7672 15.6476 48.2105 15.6476C48.8438 15.6476 49.4012 15.7426 49.8825 15.9326C50.3765 16.1099 50.6932 16.3949 50.8325 16.7876C51.0605 17.4462 51.3075 18.2126 51.5735 19.0866C51.8395 19.9606 52.1055 20.8662 52.3715 21.8036C52.6375 22.7282 52.8972 23.6466 53.1505 24.5586C53.4038 25.4579 53.6255 26.2559 53.8155 26.9526C53.6635 27.1299 53.4355 27.2692 53.1315 27.3706C52.8275 27.4846 52.4665 27.5416 52.0485 27.5416C51.7445 27.5416 51.4848 27.5162 51.2695 27.4656C51.0668 27.4149 50.8958 27.3389 50.7565 27.2376C50.6298 27.1362 50.5222 27.0032 50.4335 26.8386C50.3575 26.6739 50.2878 26.4839 50.2245 26.2686L49.8825 24.9576H46.4435C46.3422 25.3376 46.2408 25.7302 46.1395 26.1356C46.0382 26.5409 45.9368 26.9336 45.8355 27.3136C45.6582 27.3769 45.4682 27.4276 45.2655 27.4656C45.0755 27.5162 44.8412 27.5416 44.5625 27.5416C43.9165 27.5416 43.4352 27.4339 43.1185 27.2186C42.8145 26.9906 42.6625 26.6802 42.6625 26.2876C42.6625 26.1102 42.6878 25.9329 42.7385 25.7556C42.7892 25.5782 42.8462 25.3692 42.9095 25.1286C42.9982 24.7866 43.1185 24.3622 43.2705 23.8556C43.4352 23.3489 43.6125 22.8042 43.8025 22.2216C43.9925 21.6262 44.1952 21.0182 44.4105 20.3976C44.6258 19.7769 44.8285 19.1942 45.0185 18.6496C45.2085 18.0922 45.3795 17.5982 45.5315 17.1676C45.6962 16.7369 45.8228 16.4076 45.9115 16.1796ZM48.1915 18.6306C48.0142 19.1626 47.8115 19.7579 47.5835 20.4166C47.3682 21.0626 47.1718 21.7212 46.9945 22.3926H49.3505C49.1732 21.7086 48.9895 21.0436 48.7995 20.3976C48.6222 19.7389 48.4575 19.1499 48.3055 18.6306H48.1915ZM59.1886 23.6276V27.2756C59.0493 27.3136 58.8276 27.3516 58.5236 27.3896C58.2323 27.4276 57.9409 27.4466 57.6496 27.4466C57.3583 27.4466 57.0986 27.4212 56.8706 27.3706C56.6553 27.3326 56.4716 27.2566 56.3196 27.1426C56.1803 27.0286 56.0726 26.8702 55.9966 26.6676C55.9206 26.4649 55.8826 26.1989 55.8826 25.8696V16.9206C55.8826 16.6546 55.9523 16.4519 56.0916 16.3126C56.2436 16.1606 56.4463 16.0402 56.6996 15.9516C57.1303 15.7996 57.6306 15.6919 58.2006 15.6286C58.7706 15.5526 59.3786 15.5146 60.0246 15.5146C61.7726 15.5146 63.0899 15.8819 63.9766 16.6166C64.8633 17.3512 65.3066 18.3456 65.3066 19.5996C65.3066 20.3849 65.1039 21.0562 64.6986 21.6136C64.2933 22.1709 63.8119 22.6016 63.2546 22.9056C63.7106 23.5262 64.1603 24.1089 64.6036 24.6536C65.0469 25.1982 65.3953 25.6922 65.6486 26.1356C65.5219 26.5789 65.2876 26.9209 64.9456 27.1616C64.6163 27.3896 64.2426 27.5036 63.8246 27.5036C63.5459 27.5036 63.3053 27.4719 63.1026 27.4086C62.8999 27.3452 62.7226 27.2566 62.5706 27.1426C62.4186 27.0286 62.2793 26.8892 62.1526 26.7246C62.0259 26.5599 61.9056 26.3826 61.7916 26.1926L60.1956 23.6276H59.1886ZM60.3856 21.1006C60.8669 21.1006 61.2469 20.9802 61.5256 20.7396C61.8043 20.4862 61.9436 20.1189 61.9436 19.6376C61.9436 19.1562 61.7853 18.7952 61.4686 18.5546C61.1646 18.3012 60.6769 18.1746 60.0056 18.1746C59.8156 18.1746 59.6636 18.1809 59.5496 18.1936C59.4356 18.2062 59.3089 18.2252 59.1696 18.2506V21.1006H60.3856ZM67.1604 18.4976C67.0717 18.3582 66.9894 18.1682 66.9134 17.9276C66.8374 17.6869 66.7994 17.4336 66.7994 17.1676C66.7994 16.6736 66.9071 16.3189 67.1224 16.1036C67.3504 15.8882 67.6417 15.7806 67.9964 15.7806H76.2804C76.3691 15.9199 76.4514 16.1099 76.5274 16.3506C76.6034 16.5912 76.6414 16.8446 76.6414 17.1106C76.6414 17.6046 76.5274 17.9592 76.2994 18.1746C76.0841 18.3899 75.7991 18.4976 75.4444 18.4976H73.3354V27.2756C73.1961 27.3136 72.9744 27.3516 72.6704 27.3896C72.3791 27.4276 72.0877 27.4466 71.7964 27.4466C71.5051 27.4466 71.2454 27.4212 71.0174 27.3706C70.8021 27.3326 70.6184 27.2566 70.4664 27.1426C70.3144 27.0286 70.2004 26.8702 70.1244 26.6676C70.0484 26.4649 70.0104 26.1989 70.0104 25.8696V18.4976H67.1604Z" fill="#58CC02"/>
<defs>
<filter id="filter0_dd_12_13606" x="14" y="49" width="70" height="65" filterUnits="userSpaceOnUse" color-interpolation-filters="sRGB">
<feFlood flood-opacity="0" result="BackgroundImageFix"/>
<feColorMatrix in="SourceAlpha" type="matrix" values="0 0 0 0 0 0 0 0 0 0 0 0 0 0 0 0 0 0 127 0" result="hardAlpha"/>
<feOffset dy="8"/>
<feComposite in2="hardAlpha" operator="out"/>
<feColorMatrix type="matrix" values="0 0 0 0 0.345098 0 0 0 0 0.8 0 0 0 0 0.00784314 0 0 0 1 0"/>
<feBlend mode="normal" in2="BackgroundImageFix" result="effect1_dropShadow_12_13606"/>
<feColorMatrix in="SourceAlpha" type="matrix" values="0 0 0 0 0 0 0 0 0 0 0 0 0 0 0 0 0 0 127 0" result="hardAlpha"/>
<feOffset dy="8"/>
<feComposite in2="hardAlpha" operator="out"/>
<feColorMatrix type="matrix" values="0 0 0 0 0 0 0 0 0 0 0 0 0 0 0 0 0 0 0.2 0"/>
<feBlend mode="normal" in2="effect1_dropShadow_12_13606" result="effect2_dropShadow_12_13606"/>
<feBlend mode="normal" in="SourceGraphic" in2="effect2_dropShadow_12_13606" result="shape"/>
</filter>
<clipPath id="clip0_12_13606">
<rect width="98" height="98" fill="white" transform="translate(0 35.1484)"/>
</clipPath>
<clipPath id="clip1_12_13606">
<rect width="42" height="34" fill="white" transform="translate(28 60.5)"/>
</clipPath>
</defs>
</svg>
