<svg width="370" height="53" viewBox="0 0 370 53" fill="none" xmlns="http://www.w3.org/2000/svg">
<g filter="url(#filter0_d_5_9958)">
<rect x="25" width="320" height="46" rx="16" fill="#58CC02"/>
</g>
<path d="M112.849 30.5V17.46H115.869L118.049 23.44C118.182 23.8267 118.309 24.2333 118.429 24.66C118.562 25.0733 118.695 25.4867 118.829 25.9H118.909C119.042 25.4867 119.169 25.0733 119.289 24.66C119.422 24.2333 119.555 23.8267 119.689 23.44L121.789 17.46H124.829V30.5H122.309V25.32C122.309 24.9067 122.329 24.4467 122.369 23.94C122.422 23.42 122.475 22.9 122.529 22.38C122.582 21.86 122.629 21.3933 122.669 20.98H122.589L121.529 24.06L119.589 29.34H118.029L116.089 24.06L115.049 20.98H114.969C115.009 21.3933 115.055 21.86 115.109 22.38C115.162 22.9 115.209 23.42 115.249 23.94C115.289 24.4467 115.309 24.9067 115.309 25.32V30.5H112.849ZM133.845 30.74C133.032 30.74 132.305 30.62 131.665 30.38C131.025 30.14 130.485 29.7733 130.045 29.28C129.605 28.7867 129.272 28.1467 129.045 27.36C128.819 26.5733 128.705 25.64 128.705 24.56V17.46H131.465V24.82C131.465 25.7 131.559 26.4 131.745 26.92C131.932 27.44 132.205 27.8133 132.565 28.04C132.925 28.2533 133.352 28.36 133.845 28.36C134.352 28.36 134.785 28.2533 135.145 28.04C135.505 27.8133 135.785 27.44 135.985 26.92C136.185 26.4 136.285 25.7 136.285 24.82V17.46H138.925V24.56C138.925 25.64 138.812 26.5733 138.585 27.36C138.372 28.1467 138.045 28.7867 137.605 29.28C137.179 29.7733 136.645 30.14 136.005 30.38C135.379 30.62 134.659 30.74 133.845 30.74ZM142.828 30.5V17.46H145.568V28.2H150.808V30.5H142.828ZM152.202 30.5L156.342 17.46H159.622L163.762 30.5H160.862L159.062 23.78C158.875 23.1133 158.688 22.4133 158.502 21.68C158.328 20.9467 158.148 20.2333 157.962 19.54H157.882C157.722 20.2333 157.548 20.9467 157.362 21.68C157.188 22.4133 157.008 23.1133 156.822 23.78L155.002 30.5H152.202ZM154.842 27.26V25.12H161.082V27.26H154.842ZM166.049 30.5V17.46H168.789V30.5H166.049ZM177.551 30.5V17.46H181.931C182.824 17.46 183.631 17.56 184.351 17.76C185.071 17.9467 185.638 18.28 186.051 18.76C186.478 19.2267 186.691 19.8667 186.691 20.68C186.691 21.28 186.531 21.8533 186.211 22.4C185.904 22.9333 185.478 23.3 184.931 23.5V23.58C185.624 23.74 186.198 24.0733 186.651 24.58C187.118 25.0867 187.351 25.78 187.351 26.66C187.351 27.54 187.124 28.2667 186.671 28.84C186.218 29.4 185.611 29.82 184.851 30.1C184.091 30.3667 183.238 30.5 182.291 30.5H177.551ZM180.291 28.38H182.051C182.904 28.38 183.551 28.2267 183.991 27.92C184.431 27.6 184.651 27.12 184.651 26.48C184.651 25.88 184.431 25.4467 183.991 25.18C183.551 24.9 182.904 24.76 182.051 24.76H180.291V28.38ZM180.291 22.72H181.771C182.544 22.72 183.104 22.5733 183.451 22.28C183.811 21.9867 183.991 21.5867 183.991 21.08C183.991 20.5333 183.804 20.1467 183.431 19.92C183.071 19.6933 182.524 19.58 181.791 19.58H180.291V22.72ZM190.402 30.5V17.46H198.482V19.76H193.142V22.6H197.682V24.92H193.142V28.2H198.682V30.5H190.402ZM202.1 30.5V17.46H204.84V28.2H210.08V30.5H202.1ZM211.474 30.5L215.614 17.46H218.894L223.034 30.5H220.134L218.334 23.78C218.148 23.1133 217.961 22.4133 217.774 21.68C217.601 20.9467 217.421 20.2333 217.234 19.54H217.154C216.994 20.2333 216.821 20.9467 216.634 21.68C216.461 22.4133 216.281 23.1133 216.094 23.78L214.274 30.5H211.474ZM214.114 27.26V25.12H220.354V27.26H214.114ZM228.221 30.74C227.261 30.74 226.441 30.5467 225.761 30.16C225.095 29.7733 224.541 29.1933 224.101 28.42L225.981 27.04C226.235 27.4933 226.521 27.8267 226.841 28.04C227.175 28.2533 227.521 28.36 227.881 28.36C228.428 28.36 228.841 28.1933 229.121 27.86C229.415 27.5133 229.561 26.8933 229.561 26V17.46H232.321V26.24C232.321 27.0667 232.175 27.82 231.881 28.5C231.601 29.18 231.155 29.7267 230.541 30.14C229.941 30.54 229.168 30.74 228.221 30.74ZM234.52 30.5L238.66 17.46H241.94L246.08 30.5H243.18L241.38 23.78C241.193 23.1133 241.006 22.4133 240.82 21.68C240.646 20.9467 240.466 20.2333 240.28 19.54H240.2C240.04 20.2333 239.866 20.9467 239.68 21.68C239.506 22.4133 239.326 23.1133 239.14 23.78L237.32 30.5H234.52ZM237.16 27.26V25.12H243.4V27.26H237.16ZM248.367 30.5V17.46H252.967C253.887 17.46 254.72 17.58 255.467 17.82C256.213 18.06 256.807 18.4733 257.247 19.06C257.7 19.6467 257.927 20.4467 257.927 21.46C257.927 22.4333 257.7 23.2333 257.247 23.86C256.807 24.4733 256.213 24.9333 255.467 25.24C254.72 25.5333 253.887 25.68 252.967 25.68H251.107V30.5H248.367ZM255.447 30.5L252.467 24.94L254.387 23.22L258.527 30.5H255.447ZM251.107 23.48H252.727C253.54 23.48 254.16 23.3133 254.587 22.98C255.013 22.6333 255.227 22.1267 255.227 21.46C255.227 20.78 255.013 20.3067 254.587 20.04C254.16 19.7733 253.54 19.64 252.727 19.64H251.107V23.48Z" fill="white"/>
<defs>
<filter id="filter0_d_5_9958" x="25" y="0" width="320" height="50" filterUnits="userSpaceOnUse" color-interpolation-filters="sRGB">
<feFlood flood-opacity="0" result="BackgroundImageFix"/>
<feColorMatrix in="SourceAlpha" type="matrix" values="0 0 0 0 0 0 0 0 0 0 0 0 0 0 0 0 0 0 127 0" result="hardAlpha"/>
<feOffset dy="4"/>
<feComposite in2="hardAlpha" operator="out"/>
<feColorMatrix type="matrix" values="0 0 0 0 0.345098 0 0 0 0 0.654902 0 0 0 0 0 0 0 0 1 0"/>
<feBlend mode="normal" in2="BackgroundImageFix" result="effect1_dropShadow_5_9958"/>
<feBlend mode="normal" in="SourceGraphic" in2="effect1_dropShadow_5_9958" result="shape"/>
</filter>
</defs>
</svg>
