<svg width="36" height="36" viewBox="0 0 36 36" fill="none" xmlns="http://www.w3.org/2000/svg">
<path d="M27.6583 28.4241C27.3243 30.1775 25.7914 31.446 24.0066 31.446H11.9701C10.1852 31.446 8.6523 30.1775 8.31834 28.4241L5.60358 14.1716L17.8876 5.08765L30.3736 14.1685L27.6583 28.4241Z" fill="#FFC800"/>
<path opacity="0.5" fill-rule="evenodd" clip-rule="evenodd" d="M14.8003 26.0001C14.8003 25.3373 15.3375 24.8 16.0002 24.8H20.8003C21.463 24.8 22.0003 25.3373 22.0003 26.0001C22.0003 26.6628 21.463 27.2001 20.8003 27.2001H16.0002C15.3375 27.2001 14.8003 26.6628 14.8003 26.0001Z" fill="#945151"/>
<path d="M21.9133 18.3372C21.9133 20.4983 20.1614 22.2501 18.0003 22.2501C15.8391 22.2501 14.0873 20.4983 14.0873 18.3372C14.0873 16.176 15.8391 14.4241 18.0003 14.4241C20.1614 14.4241 21.9133 16.176 21.9133 18.3372Z" fill="#945151"/>
<path d="M18.1896 3.20014C18.7235 3.19754 19.2637 3.35907 19.7281 3.69622L33.6887 13.7608C34.8504 14.6049 35.1079 16.2309 34.2639 17.3926C33.42 18.5539 31.7947 18.8116 30.6331 17.9683L18.1802 8.99077L5.72859 17.9675L5.72761 17.9683C4.56598 18.8114 2.94069 18.5538 2.0969 17.3923C1.25288 16.2307 1.5104 14.6047 2.6721 13.7607L2.67389 13.7594L16.6319 3.69664C17.1017 3.3556 17.6498 3.19369 18.1896 3.20014Z" fill="#FF4B4B"/>
</svg>
