<svg width="80" height="80" viewBox="0 0 80 80" fill="none" xmlns="http://www.w3.org/2000/svg">
<circle cx="40" cy="40" r="40" fill="white"/>
<path d="M47.909 40.4384L54.239 34.1084C55.2034 33.0998 55.7346 31.7536 55.719 30.3582C55.7033 28.9628 55.1421 27.6289 54.1553 26.6422C53.1685 25.6554 51.8347 25.0941 50.4392 25.0785C49.0438 25.0628 47.6977 25.594 46.689 26.5584L40.359 32.8884L33.999 26.5584C32.9904 25.594 31.6443 25.0628 30.2488 25.0785C28.8534 25.0941 27.5196 25.6554 26.5328 26.6422C25.546 27.6289 24.9847 28.9628 24.9691 30.3582C24.9534 31.7536 25.4846 33.0998 26.449 34.1084L32.779 40.4384L26.449 46.7684C25.4846 47.7771 24.9534 49.1232 24.9691 50.5186C24.9847 51.914 25.546 53.2479 26.5328 54.2347C27.5196 55.2214 28.8534 55.7827 30.2488 55.7984C31.6443 55.814 32.9904 55.2828 33.999 54.3184L40.329 47.9884L46.659 54.3184C47.6677 55.2828 49.0138 55.814 50.4092 55.7984C51.8046 55.7827 53.1385 55.2214 54.1253 54.2347C55.1121 53.2479 55.6733 51.914 55.689 50.5186C55.7046 49.1232 55.1734 47.7771 54.209 46.7684L47.909 40.4384Z" fill="#EC0B1B"/>
</svg>
