<svg width="36" height="36" viewBox="0 0 36 36" fill="none" xmlns="http://www.w3.org/2000/svg">
<g clip-path="url(#clip0_5_6532)">
<mask id="mask0_5_6532" style="mask-type:luminance" maskUnits="userSpaceOnUse" x="0" y="0" width="36" height="36">
<path d="M36 0H0V36H36V0Z" fill="white"/>
</mask>
<g mask="url(#mask0_5_6532)">
<path d="M14.4141 19.6176L21.1917 15.7046" stroke="#AFAFAF" stroke-width="2.34783"/>
<path d="M23.4818 7.1522C22.5093 5.46778 20.3554 4.89065 18.671 5.86315C16.9866 6.83566 16.4095 8.98952 17.382 10.6739L24.0341 22.1958C25.0066 23.8803 27.1605 24.4574 28.8449 23.4849C30.5293 22.5124 31.1065 20.3585 30.134 18.6741L23.4818 7.1522Z" fill="#1CB0F6"/>
<path d="M11.9623 13.8045C10.9898 12.1201 8.8359 11.543 7.15148 12.5155C5.46706 13.488 4.88993 15.6419 5.86243 17.3263L12.5146 28.8482C13.4871 30.5326 15.641 31.1097 17.3254 30.1372C19.0098 29.1647 19.5869 27.0109 18.6144 25.3264L11.9623 13.8045Z" fill="#1CB0F6"/>
<path d="M29.7943 7.12437C28.8218 5.43995 26.6679 4.86282 24.9835 5.83532C23.2991 6.80782 22.722 8.96169 23.6945 10.6461L27.2162 16.7459C28.1887 18.4304 30.3426 19.0075 32.027 18.035C33.7114 17.0625 34.2885 14.9086 33.316 13.2242L29.7943 7.12437Z" fill="#1CB0F6"/>
<path d="M8.78258 19.2547C7.81007 17.5703 5.65621 16.9932 3.97179 17.9657C2.28737 18.9382 1.71024 21.0921 2.68274 22.7765L6.20448 28.8763C7.17699 30.5607 9.33085 31.1379 11.0153 30.1654C12.6997 29.1929 13.2768 27.039 12.3043 25.3546L8.78258 19.2547Z" fill="#1CB0F6"/>
<path opacity="0.3" d="M6.67102 20.3515C6.34685 19.79 5.62889 19.5977 5.06742 19.9218C4.50595 20.246 4.31357 20.964 4.63774 21.5254L5.42035 22.8809C5.74451 23.4424 6.46247 23.6348 7.02394 23.3106C7.58542 22.9865 7.77779 22.2685 7.45362 21.707L6.67102 20.3515Z" fill="white"/>
<path opacity="0.3" d="M28.5851 8.61274C28.2609 8.05127 27.543 7.8589 26.9815 8.18306C26.42 8.50723 26.2276 9.22518 26.5518 9.78666L27.3344 11.1422C27.6586 11.7037 28.3765 11.896 28.938 11.5719C29.4995 11.2477 29.6919 10.5297 29.3677 9.96826L28.5851 8.61274Z" fill="white"/>
<path opacity="0.3" d="M9.80383 14.8735C9.47966 14.312 8.76171 14.1196 8.20023 14.4438C7.63876 14.768 7.44638 15.4859 7.77055 16.0474L8.94446 18.0807C9.26863 18.6422 9.98658 18.8345 10.5481 18.5104C11.1095 18.1862 11.3019 17.4682 10.9777 16.9068L9.80383 14.8735Z" fill="white"/>
<path opacity="0.3" d="M21.5421 8.61274C21.2179 8.05127 20.5 7.8589 19.9385 8.18306C19.377 8.50723 19.1847 9.22518 19.5088 9.78666L20.6827 11.8199C21.0069 12.3814 21.7249 12.5738 22.2863 12.2496C22.8478 11.9254 23.0402 11.2075 22.716 10.646L21.5421 8.61274Z" fill="white"/>
</g>
<rect x="26" y="1" width="9" height="9" rx="4.5" fill="#FF4B4B" stroke="white" stroke-width="2"/>
</g>
<defs>
<clipPath id="clip0_5_6532">
<rect width="36" height="36" fill="white"/>
</clipPath>
</defs>
</svg>
